<svg id="Capa_1" enable-background="new 0 0 511.459 511.459" height="512" viewBox="0 0 511.459 511.459" width="512" xmlns="http://www.w3.org/2000/svg"><g><g><path d="m310.836 105.933c1.911-3.966 2.983-8.412 2.983-13.109 0-16.694-13.534-30.228-30.228-30.228-9.723 0-18.368 4.596-23.897 11.728-2.345-14.36-14.802-25.322-29.826-25.322-4.088 0-7.985.816-11.542 2.287-3.794-12.36-15.296-21.346-28.899-21.346-16.155 0-29.349 12.674-30.185 28.621-3.035-1.024-6.282-1.587-9.663-1.587-11.917 0-22.22 6.899-27.142 16.918-5.128-4.005-11.576-6.398-18.586-6.398-16.694 0-30.228 13.534-30.228 30.228 0 1.352.098 2.68.27 3.984l5.322 122.387s205.654 10.306 205.678 6.541c.023-3.766 25.943-124.704 25.943-124.704z" fill="#fdf6ec"/><g><path d="m93.444 120.351c-.172-1.305-.27-2.633-.27-3.984 0-16.694 13.534-30.228 30.228-30.228 4.473 0 8.716.974 12.534 2.72 3.42 1.564 7.517.605 9.917-2.291 5.544-6.688 13.912-10.949 23.277-10.949.749 0 1.491.028 2.226.082 3.916.289 7.585-2.108 8.749-5.858 3.821-12.314 15.303-21.257 28.873-21.257 3.09 0 6.085.478 8.893 1.34-4.198-11.649-15.348-19.982-28.445-19.982-16.155 0-29.349 12.674-30.185 28.621-3.035-1.024-6.282-1.587-9.663-1.587-11.917 0-22.22 6.899-27.142 16.918-5.128-4.005-11.576-6.398-18.586-6.398-16.694 0-30.228 13.534-30.228 30.228 0 1.352.098 2.68.27 3.984l5.322 122.387s7.15.358 18.781.917z" fill="#fef1da"/></g><path d="m245.872 142.918c-.759-16.119-13.806-28.553-30.397-27.772-.009 0-.019.002-.028.002-.003-.36-.006-.72-.023-1.082-.759-16.119-14.825-28.553-31.416-27.772-14.797.697-26.597 11.672-28.44 25.471-3.085-.861-6.363-1.26-9.75-1.101-16.592.781-29.426 14.482-28.667 30.601l-10.04 89.027s131.419.772 130.647 0c-.773-.771 8.114-87.374 8.114-87.374z" fill="#fef1da"/><g><path d="m126.055 230.394 8.325-73.82c-.759-16.119 12.076-29.82 28.667-30.601.484-.023.966-.034 1.445-.034 4.636-.002 8.755-2.883 10.706-7.087 4.511-9.72 14.338-16.698 26.039-17.249 4.031-.19 7.918.406 11.496 1.64-4.957-10.494-16.112-17.542-28.725-16.948-14.797.697-26.597 11.672-28.44 25.471-3.085-.861-6.363-1.26-9.75-1.101-16.592.781-29.426 14.482-28.667 30.601l-10.04 89.027c-.001 0 7.522.044 18.944.101z" fill="#fae2c0"/></g><path d="m121.636 160.771c.607-2.19.939-4.495.939-6.878 0-14.187-11.501-25.687-25.687-25.687-.008 0-.016.001-.024.001.012-.316.024-.632.024-.951 0-14.187-11.501-25.687-25.687-25.687-12.652 0-23.16 9.15-25.287 21.192-2.597-.884-5.378-1.37-8.274-1.37-14.187 0-25.687 11.501-25.687 25.687 0 7.335 3.079 13.947 8.01 18.627l18.011 49.399h75.192z" fill="#fef1da"/><g><path d="m37.113 181.8c-5.283-5.015-8.441-12.247-7.962-20.211.728-12.129 10.118-22.262 22.162-23.871 1.99-.266 3.941-.299 5.832-.125 3.281.301 6.352-1.514 7.673-4.532 3.966-9.064 13.009-15.398 23.535-15.398 2.448 0 4.819.355 7.062.994-3.538-9.955-13.045-17.09-24.213-17.09-12.652 0-23.16 9.15-25.287 21.192-3.622-1.232-7.601-1.692-11.752-1.137-12.043 1.609-21.433 11.743-22.162 23.871-.478 7.963 2.679 15.195 7.962 20.211l18.011 49.399h11.283z" fill="#fae2c0"/></g><path d="m347.401 179.093c4.755-4.24 7.955-10.239 8.51-17.09 1.146-14.14-9.389-26.532-23.529-27.678-.008-.001-.016-.001-.024-.001.037-.314.075-.628.101-.946 1.146-14.14-9.388-26.532-23.529-27.678-12.611-1.022-23.824 7.25-26.916 19.081-2.517-1.09-5.25-1.8-8.137-2.034-14.14-1.146-26.532 9.389-27.678 23.529-.422 5.213.747 10.187 3.095 14.449l.089 60.595h68.18z" fill="#fef1da"/><g><path d="m265.837 176.838c-2.297-4.168-3.466-9.017-3.121-14.105.94-13.868 13.117-24.664 26.996-23.92.09.005.18.01.269.016 4.884.313 9.49-1.965 12.271-5.992 5.043-7.304 13.736-11.791 23.22-11.023 1.967.159 3.868.546 5.674 1.115-3.229-9.343-11.732-16.379-22.216-17.229-12.611-1.022-23.824 7.25-26.916 19.081-2.722-1.179-5.696-1.913-8.844-2.081-13.88-.744-26.056 10.052-26.996 23.92-.345 5.088.824 9.937 3.121 14.105l.089 60.595h16.518z" fill="#fae2c0"/></g><g><g id="XMLID_213_"><g><path d="m147.114 479.448v2.07h-31.89-11.37v-2.07l-21.45-264.77-3.19-39.4c22.88-20.05 45.26-21.06 67.05 0l.85 39.03z" fill="#fe99a0"/><path d="m275.724 175.278-3.19 39.4-21.94 258.27-1.21 8.57h-49.27l7.71-267.21.85-39.03c21.79-21.06 44.17-20.05 67.05 0z" fill="#fe99a0"/><g fill="#f9f7f8"><path d="m344.414 172.208c2.18 1.8 3.31 4.58 2.96 7.39l-16.83 134.64-25.83 152.56c-1.44 8.5-8.81 14.72-17.43 14.72h-37.9l1.21-8.57 21.94-258.27 3.19-39.4c26.76-20.87 49.14-19.2 68.69-3.07z"/><path d="m208.674 175.278-.85 39.03-7.71 267.21h-53v-2.07-265.14l-.85-39.03c19.14-22.1 40.17-19.02 62.41 0z"/><path d="m103.854 479.448v2.07h-41.12c-9.96 0-18.36-7.42-19.59-17.3l-35.58-284.62c-.35-2.81.78-5.59 2.96-7.39 19.55-16.13 41.92-17.8 68.69 3.07l3.19 39.4z"/></g><path d="m91.321 464.218c.924 7.422 5.895 13.455 12.534 15.997v1.303h-41.12c-9.96 0-18.36-7.42-19.59-17.3l-35.58-284.62c-.35-2.81.78-5.59 2.96-7.39 16.324-13.469 34.629-16.847 55.806-5.448-.092.056-.205.123-.312.192-6.88 4.388-10.543 12.412-9.524 20.509z" fill="#efedef"/></g></g></g><path d="m284.892 314.243v-51.763c0-10.035-8.135-18.169-18.169-18.169h-178.511c-10.035 0-18.169 8.135-18.169 18.169v88.366c0 10.035 8.135 18.169 18.169 18.169h15.25 160.609c11.499 0 20.82-9.322 20.82-20.82v-33.952z" fill="#fae2c0"/><g id="XMLID_207_"><g><path d="m174.124 319.238c-16.943 0-32.45 6.237-44.358 16.534-4.595 3.973-11.722.759-11.722-5.315v-67.977c0-10.035 8.135-18.169 18.169-18.169h-48.001c-10.035 0-18.169 8.135-18.169 18.169v88.366c0 10.035 8.135 18.169 18.169 18.169h15.25 5.199 27.552 127.858c11.499 0 20.82-9.322 20.82-20.82v-28.957z" fill="#fddeb0"/><path d="m503.954 387.188v51.35c0 23.72-19.22 42.95-42.95 42.95h-103.8c-4.96 0-9.8-1.5-13.88-4.3l-18.7-12.8c-4.26-2.92-9.86-2.92-14.12 0l-18.7 12.8c-4.08 2.8-8.93 4.3-13.88 4.3h-103.8c-23.73 0-42.95-19.23-42.95-42.95v-51.35c0-23.72 19.22-42.95 42.95-42.95h286.88c23.73 0 42.95 19.23 42.95 42.95z" fill="#f9f7f8"/></g></g><g><g><path d="m189.977 438.538v-51.35c0-23.72 19.22-42.95 42.95-42.95h-58.802c-23.73 0-42.95 19.23-42.95 42.95v51.35c0 23.72 19.22 42.95 42.95 42.95h58.802c-23.73 0-42.95-19.23-42.95-42.95z" fill="#efedef"/></g></g><path d="m461.077 437.331h-102.836c-5.306 0-9.608-4.302-9.608-9.608v-36.331c0-5.306 4.302-9.608 9.608-9.608h102.836c5.306 0 9.608 4.302 9.608 9.608v36.331c0 5.307-4.302 9.608-9.608 9.608z" fill="#fe99a0"/><path d="m174.052 437.331h102.836c5.306 0 9.608-4.302 9.608-9.608v-36.331c0-5.306-4.302-9.608-9.608-9.608h-102.836c-5.306 0-9.608 4.302-9.608 9.608v36.331c0 5.307 4.301 9.608 9.608 9.608z" fill="#98bce5"/><path d="m174.052 381.785c-5.306 0-9.608 4.302-9.608 9.608v36.331c0 5.306 4.302 9.608 9.608 9.608h15.925v-50.143c0-1.832.128-3.632.35-5.403h-16.275z" fill="#7bacdf"/></g><g><path d="m115.223 474.016h-4.289l-6.124-75.606c-.335-4.129-3.969-7.209-8.081-6.87-4.129.334-7.205 3.953-6.87 8.081l6.026 74.396h-33.146c-6.165 0-11.39-4.613-12.155-10.73l-35.577-284.62c-.031-.246.078-.498.291-.674 2.28-1.881 4.846-3.778 7.713-5.441.426-.189.838-.416 1.229-.688 11.097-5.976 26.567-8.078 47.766 7.375l2.919 36.041c.318 3.923 3.6 6.895 7.467 6.895.203 0 .408-.008.614-.025 4.129-.334 7.205-3.953 6.87-8.081l-2.878-35.53c18.472-14.838 35.078-14.808 51.838.086l.781 35.85c.089 4.085 3.429 7.336 7.495 7.336.056 0 .111 0 .167-.002 4.141-.09 7.425-3.521 7.334-7.662l-.786-36.061c9.696-10.306 23.768-18.016 47.264.664l-.771 35.397c-.09 4.141 3.193 7.572 7.334 7.662.056.001.111.002.167.002 4.065 0 7.406-3.251 7.495-7.336l.781-35.85c16.76-14.894 33.365-14.925 51.838-.086l-2.878 35.53c-.334 4.128 2.741 7.747 6.87 8.081.206.017.411.025.614.025 3.868 0 7.149-2.973 7.467-6.895l2.92-36.041c27.637-20.143 45.542-10.458 56.708-1.245.195.161.288.386.282.611-.004.066-.005.131-.008.197l-16.814 134.512c-.514 4.11 2.401 7.858 6.512 8.372 4.115.518 7.858-2.401 8.372-6.512l16.575-132.598c5.111-5.458 8.221-12.442 8.83-19.966.716-8.836-2.052-17.421-7.793-24.175-4.2-4.941-9.624-8.469-15.692-10.287-.628-6.725-3.294-13.085-7.76-18.338-3.258-3.833-7.253-6.812-11.713-8.806.589-2.662.891-5.393.891-8.178 0-20.803-16.925-37.728-37.728-37.728-7.441 0-14.53 2.14-20.56 6.074-6.426-11.874-18.938-19.667-33.163-19.667-2.452 0-4.872.233-7.245.696-6.479-12.057-19.052-19.756-33.197-19.756-17.123 0-31.68 11.417-36.243 27.206-1.195-.114-2.397-.172-3.604-.172-11.713 0-22.435 5.28-29.496 14.177-5.024-2.408-10.523-3.657-16.233-3.657-19.693 0-35.9 15.169-37.575 34.435-11.386 1.692-21.015 9.164-25.526 19.604-1.032-.097-2.069-.146-3.11-.146-18.3 0-33.188 14.888-33.188 33.187 0 6.027 1.591 11.774 4.564 16.807-1.092.809-2.181 1.646-3.264 2.54-4.195 3.461-6.299 8.733-5.628 14.103l35.578 284.62c1.701 13.608 13.325 23.87 27.039 23.87h52.484c4.142 0 7.5-3.358 7.5-7.5s-3.357-7.503-7.5-7.503zm93.188-308.562c-17.29-12.981-40.394-21.208-62.565-.553-5.179-4.166-10.464-7.289-15.826-9.381.027-.542.055-1.084.055-1.627 0-4.945-1.089-9.641-3.037-13.861.048-5.186 2.016-10.127 5.66-14.017 3.973-4.241 9.418-6.729 15.334-7.008 2.438-.116 4.857.158 7.2.813 2.09.584 4.332.232 6.145-.962 1.813-1.195 3.018-3.117 3.306-5.269 1.364-10.216 10.126-17.998 20.833-18.502 5.907-.282 11.571 1.688 15.925 5.536 4.292 3.794 6.802 8.974 7.066 14.58.011.24.012.478.015.785.02 2.045.874 3.993 2.364 5.393 1.491 1.4 3.492 2.128 5.53 2.024.016-.001.033-.002.049-.003 11.941-.54 21.362 8.11 21.928 20.123.032.674.158 1.319.354 1.932-.006.071-.017.142-.023.213-.184 2.27-.121 4.532.154 6.76-10.417.593-20.635 4.928-30.467 13.024zm99.914-52.279c4.842.392 9.241 2.646 12.388 6.348 3.146 3.701 4.663 8.406 4.27 13.257-.016.2-.041.396-.073.665-.242 2.046.382 4.103 1.702 5.685 1.291 1.547 3.16 2.508 5.165 2.671 4.842.392 9.242 2.646 12.388 6.348 3.146 3.701 4.663 8.406 4.271 13.249-.107 1.316-.367 2.596-.744 3.835-22.145-17.409-46.242-17.23-71.715.537-7.12-5.492-14.249-9.293-21.332-11.413-.837-2.384-1.176-4.92-.969-7.475.392-4.842 2.647-9.242 6.348-12.389 3.702-3.146 8.408-4.661 13.249-4.271 1.989.161 3.927.646 5.76 1.44 2.01.871 4.298.82 6.265-.139 1.968-.958 3.419-2.729 3.973-4.847 2.231-8.536 10.237-14.219 19.054-13.501zm-204.475-38.178c5.111 0 9.942 1.663 13.97 4.809 1.78 1.391 4.092 1.905 6.294 1.399 2.202-.505 4.058-1.976 5.054-4.003 3.856-7.85 11.677-12.726 20.411-12.726 2.474 0 4.918.401 7.266 1.193 2.224.749 4.669.417 6.611-.902 1.941-1.318 3.153-3.469 3.276-5.812.632-12.063 10.601-21.513 22.695-21.513 10.051 0 18.783 6.449 21.729 16.047.62 2.019 2.062 3.683 3.973 4.583 1.911.901 4.112.954 6.063.146 2.756-1.14 5.675-1.718 8.676-1.718 11.192 0 20.623 8.003 22.423 19.03.481 2.946 2.662 5.326 5.555 6.061 2.896.735 5.946-.315 7.774-2.674 4.347-5.607 10.897-8.823 17.97-8.823 12.532 0 22.728 10.195 22.728 22.728 0 1.822-.215 3.603-.631 5.333-11.925.408-22.609 7.154-28.116 17.511-1.02-.18-2.05-.313-3.088-.396-8.837-.718-17.421 2.051-24.176 7.793-.811.689-1.581 1.413-2.314 2.165-5.447-8.815-14.547-14.942-25.24-16.473-1.575-7.441-5.503-14.178-11.378-19.372-7.294-6.448-16.723-9.748-26.565-9.281-15.256.719-28.175 10.392-33.139 23.964-1.443-.098-2.893-.114-4.344-.044-9.836.463-18.919 4.631-25.576 11.736-2.893 3.088-5.175 6.572-6.804 10.31-3.328-2.168-7.064-3.762-11.069-4.624-2.165-12.213-11.035-22.137-22.654-25.828 1.066-11.546 10.804-20.619 22.626-20.619zm-66.211 53.893c1.995 0 3.967.327 5.859.97 2.073.705 4.349.469 6.233-.645s3.187-2.996 3.568-5.151c1.535-8.689 9.063-14.997 17.901-14.997 10.028 0 18.187 8.159 18.187 18.188 0 .214-.01.426-.019.673-.076 2.036.68 4.015 2.094 5.482s3.364 2.296 5.401 2.296h.074c9.494.025 17.287 7.366 18.06 16.67-11.856-.384-23.961 4.079-36.038 13.395-19.917-13.89-38.991-17.024-56.949-9.416-1.659-2.776-2.56-5.946-2.56-9.277.001-10.03 8.16-18.188 18.189-18.188z"/><path d="m284.892 321.743c4.142 0 7.5-3.358 7.5-7.5v-51.763c0-14.154-11.515-25.669-25.669-25.669h-125.684c-4.142 0-7.5 3.358-7.5 7.5s3.358 7.5 7.5 7.5h125.684c5.883 0 10.669 4.786 10.669 10.669v51.763c0 4.142 3.358 7.5 7.5 7.5z"/><path d="m88.212 251.81h20.865c4.142 0 7.5-3.358 7.5-7.5s-3.358-7.5-7.5-7.5h-20.865c-14.154 0-25.669 11.515-25.669 25.669v88.366c0 14.154 11.515 25.669 25.669 25.669h15.25c4.142 0 7.5-3.358 7.5-7.5s-3.358-7.5-7.5-7.5h-15.25c-5.883 0-10.669-4.786-10.669-10.669v-88.365c0-5.883 4.786-10.67 10.669-10.67z"/><path d="m461.009 336.743h-219.558c-4.142 0-7.5 3.358-7.5 7.5s3.358 7.5 7.5 7.5h219.558c19.547 0 35.45 15.902 35.45 35.449v51.348c0 19.547-15.903 35.45-35.45 35.45h-103.804c-3.458 0-6.795-1.033-9.648-2.987l-18.699-12.806c-6.755-4.626-15.832-4.626-22.587 0l-18.699 12.806c-2.854 1.954-6.19 2.987-9.649 2.987h-103.804c-19.547 0-35.45-15.903-35.45-35.45v-51.348c0-19.547 15.903-35.449 35.45-35.449h35.369c4.142 0 7.5-3.358 7.5-7.5s-3.358-7.5-7.5-7.5h-35.369c-27.818 0-50.45 22.631-50.45 50.449v51.348c0 27.818 22.632 50.45 50.45 50.45h103.803c6.497 0 12.764-1.94 18.124-5.611l18.699-12.806c1.713-1.172 3.925-1.172 5.637 0l18.699 12.806c5.36 3.671 11.627 5.611 18.124 5.611h103.804c27.818 0 50.45-22.632 50.45-50.45v-51.348c0-27.818-22.632-50.449-50.45-50.449z"/><path d="m461.077 429.831h-22.528c-4.142 0-7.5 3.358-7.5 7.5s3.358 7.5 7.5 7.5h22.528c9.433 0 17.107-7.675 17.107-17.108v-36.331c0-9.433-7.674-17.108-17.107-17.108h-102.836c-9.433 0-17.108 7.675-17.108 17.108v36.331c0 9.433 7.675 17.108 17.108 17.108h48.346c4.142 0 7.5-3.358 7.5-7.5s-3.358-7.5-7.5-7.5h-48.346c-1.162 0-2.108-.946-2.108-2.108v-36.331c0-1.162.946-2.108 2.108-2.108h102.836c1.162 0 2.107.946 2.107 2.108v36.331c0 1.162-.945 2.108-2.107 2.108z"/><path d="m156.944 391.392v36.331c0 9.433 7.674 17.107 17.107 17.107h102.836c9.433 0 17.108-7.674 17.108-17.107v-36.331c0-9.433-7.675-17.108-17.108-17.108h-102.835c-9.434.001-17.108 7.675-17.108 17.108zm122.051 0v36.331c0 1.162-.946 2.107-2.108 2.107h-102.835c-1.162 0-2.107-.945-2.107-2.107v-36.331c0-1.162.945-2.108 2.107-2.108h102.836c1.162.001 2.107.946 2.107 2.108z"/></g></g></svg>